<mxfile host="app.diagrams.net" modified="2023-09-23T16:11:30.735Z" agent="Mozilla/5.0 (Windows NT 10.0; Win64; x64) AppleWebKit/537.36 (KHTML, like Gecko) Chrome/116.0.0.0 Safari/537.36" etag="o-DCLCRHFPqEnHSeSTM5" version="21.8.0" type="device">
  <diagram name="PÃ¡gina-1" id="Up8Qe7j2k4FjgR6XVSVP">
    <mxGraphModel dx="1257" dy="1795" grid="1" gridSize="10" guides="1" tooltips="1" connect="1" arrows="1" fold="1" page="1" pageScale="1" pageWidth="827" pageHeight="1169" background="none" math="0" shadow="0">
      <root>
        <mxCell id="0" />
        <mxCell id="1" parent="0" />
        <mxCell id="29IkJBbhPeJfPXuXuNg9-1" value="A" style="text;html=1;strokeColor=none;fillColor=none;align=center;verticalAlign=middle;whiteSpace=wrap;rounded=0;strokeWidth=2;fontSize=40;" vertex="1" parent="1">
          <mxGeometry x="60" y="-1130" width="60" height="50" as="geometry" />
        </mxCell>
        <mxCell id="29IkJBbhPeJfPXuXuNg9-2" value="B" style="text;html=1;strokeColor=none;fillColor=none;align=center;verticalAlign=middle;whiteSpace=wrap;rounded=0;strokeWidth=2;fontSize=40;" vertex="1" parent="1">
          <mxGeometry x="60" y="-1000" width="60" height="50" as="geometry" />
        </mxCell>
        <mxCell id="29IkJBbhPeJfPXuXuNg9-22" style="edgeStyle=orthogonalEdgeStyle;rounded=0;orthogonalLoop=1;jettySize=auto;html=1;exitX=1;exitY=0.5;exitDx=0;exitDy=0;" edge="1" parent="1" source="29IkJBbhPeJfPXuXuNg9-3">
          <mxGeometry relative="1" as="geometry">
            <mxPoint x="340" y="-910" as="targetPoint" />
          </mxGeometry>
        </mxCell>
        <mxCell id="29IkJBbhPeJfPXuXuNg9-3" value="C" style="text;html=1;strokeColor=none;fillColor=none;align=center;verticalAlign=middle;whiteSpace=wrap;rounded=0;strokeWidth=2;fontSize=40;" vertex="1" parent="1">
          <mxGeometry x="60" y="-880" width="60" height="50" as="geometry" />
        </mxCell>
        <mxCell id="29IkJBbhPeJfPXuXuNg9-4" value="" style="shape=or;whiteSpace=wrap;html=1;" vertex="1" parent="1">
          <mxGeometry x="240" y="-1080" width="60" height="80" as="geometry" />
        </mxCell>
        <mxCell id="29IkJBbhPeJfPXuXuNg9-5" style="edgeStyle=orthogonalEdgeStyle;rounded=0;orthogonalLoop=1;jettySize=auto;html=1;exitX=1;exitY=0.5;exitDx=0;exitDy=0;entryX=0;entryY=0.25;entryDx=0;entryDy=0;entryPerimeter=0;strokeColor=default;endArrow=none;endFill=0;" edge="1" parent="1" source="29IkJBbhPeJfPXuXuNg9-1" target="29IkJBbhPeJfPXuXuNg9-4">
          <mxGeometry relative="1" as="geometry" />
        </mxCell>
        <mxCell id="29IkJBbhPeJfPXuXuNg9-7" value="" style="ellipse;whiteSpace=wrap;html=1;aspect=fixed;" vertex="1" parent="1">
          <mxGeometry x="220" y="-1070" width="20" height="20" as="geometry" />
        </mxCell>
        <mxCell id="29IkJBbhPeJfPXuXuNg9-10" style="edgeStyle=orthogonalEdgeStyle;rounded=0;orthogonalLoop=1;jettySize=auto;html=1;exitX=1;exitY=0.5;exitDx=0;exitDy=0;entryX=0;entryY=0.75;entryDx=0;entryDy=0;entryPerimeter=0;endArrow=none;endFill=0;" edge="1" parent="1" source="29IkJBbhPeJfPXuXuNg9-2" target="29IkJBbhPeJfPXuXuNg9-4">
          <mxGeometry relative="1" as="geometry" />
        </mxCell>
        <mxCell id="29IkJBbhPeJfPXuXuNg9-23" style="edgeStyle=orthogonalEdgeStyle;rounded=0;orthogonalLoop=1;jettySize=auto;html=1;exitX=0.175;exitY=0.75;exitDx=0;exitDy=0;exitPerimeter=0;endArrow=none;endFill=0;" edge="1" parent="1" source="29IkJBbhPeJfPXuXuNg9-11">
          <mxGeometry relative="1" as="geometry">
            <mxPoint x="340" y="-930" as="targetPoint" />
          </mxGeometry>
        </mxCell>
        <mxCell id="29IkJBbhPeJfPXuXuNg9-11" value="" style="shape=xor;whiteSpace=wrap;html=1;" vertex="1" parent="1">
          <mxGeometry x="390" y="-1060" width="60" height="80" as="geometry" />
        </mxCell>
        <mxCell id="29IkJBbhPeJfPXuXuNg9-13" style="edgeStyle=orthogonalEdgeStyle;rounded=0;orthogonalLoop=1;jettySize=auto;html=1;exitX=1;exitY=0.5;exitDx=0;exitDy=0;exitPerimeter=0;entryX=0.175;entryY=0.25;entryDx=0;entryDy=0;entryPerimeter=0;endArrow=none;endFill=0;" edge="1" parent="1" source="29IkJBbhPeJfPXuXuNg9-4" target="29IkJBbhPeJfPXuXuNg9-11">
          <mxGeometry relative="1" as="geometry">
            <Array as="points">
              <mxPoint x="370" y="-1040" />
              <mxPoint x="370" y="-1040" />
            </Array>
          </mxGeometry>
        </mxCell>
        <mxCell id="29IkJBbhPeJfPXuXuNg9-15" style="edgeStyle=orthogonalEdgeStyle;rounded=0;orthogonalLoop=1;jettySize=auto;html=1;exitX=0;exitY=0.25;exitDx=0;exitDy=0;exitPerimeter=0;endArrow=none;endFill=0;" edge="1" parent="1" source="29IkJBbhPeJfPXuXuNg9-14">
          <mxGeometry relative="1" as="geometry">
            <mxPoint x="180" y="-980" as="targetPoint" />
          </mxGeometry>
        </mxCell>
        <mxCell id="29IkJBbhPeJfPXuXuNg9-16" style="edgeStyle=orthogonalEdgeStyle;rounded=0;orthogonalLoop=1;jettySize=auto;html=1;exitX=0;exitY=0.75;exitDx=0;exitDy=0;exitPerimeter=0;entryX=1;entryY=0.5;entryDx=0;entryDy=0;endArrow=none;endFill=0;" edge="1" parent="1" source="29IkJBbhPeJfPXuXuNg9-14" target="29IkJBbhPeJfPXuXuNg9-3">
          <mxGeometry relative="1" as="geometry" />
        </mxCell>
        <mxCell id="29IkJBbhPeJfPXuXuNg9-14" value="" style="shape=or;whiteSpace=wrap;html=1;" vertex="1" parent="1">
          <mxGeometry x="240" y="-960" width="60" height="80" as="geometry" />
        </mxCell>
        <mxCell id="29IkJBbhPeJfPXuXuNg9-17" value="" style="ellipse;whiteSpace=wrap;html=1;aspect=fixed;" vertex="1" parent="1">
          <mxGeometry x="450" y="-1030" width="20" height="20" as="geometry" />
        </mxCell>
        <mxCell id="29IkJBbhPeJfPXuXuNg9-18" value="" style="shape=or;whiteSpace=wrap;html=1;" vertex="1" parent="1">
          <mxGeometry x="530" y="-1015" width="60" height="80" as="geometry" />
        </mxCell>
        <mxCell id="29IkJBbhPeJfPXuXuNg9-19" style="edgeStyle=orthogonalEdgeStyle;rounded=0;orthogonalLoop=1;jettySize=auto;html=1;exitX=1;exitY=0.5;exitDx=0;exitDy=0;entryX=0;entryY=0.25;entryDx=0;entryDy=0;entryPerimeter=0;endArrow=none;endFill=0;" edge="1" parent="1" source="29IkJBbhPeJfPXuXuNg9-17" target="29IkJBbhPeJfPXuXuNg9-18">
          <mxGeometry relative="1" as="geometry">
            <Array as="points">
              <mxPoint x="500" y="-1020" />
              <mxPoint x="500" y="-995" />
            </Array>
          </mxGeometry>
        </mxCell>
        <mxCell id="29IkJBbhPeJfPXuXuNg9-20" style="edgeStyle=orthogonalEdgeStyle;rounded=0;orthogonalLoop=1;jettySize=auto;html=1;exitX=1;exitY=0.5;exitDx=0;exitDy=0;exitPerimeter=0;entryX=0;entryY=0.75;entryDx=0;entryDy=0;entryPerimeter=0;endArrow=none;endFill=0;" edge="1" parent="1" source="29IkJBbhPeJfPXuXuNg9-14" target="29IkJBbhPeJfPXuXuNg9-18">
          <mxGeometry relative="1" as="geometry">
            <Array as="points">
              <mxPoint x="500" y="-920" />
              <mxPoint x="500" y="-955" />
            </Array>
          </mxGeometry>
        </mxCell>
        <mxCell id="29IkJBbhPeJfPXuXuNg9-21" style="edgeStyle=orthogonalEdgeStyle;rounded=0;orthogonalLoop=1;jettySize=auto;html=1;exitX=1;exitY=0.5;exitDx=0;exitDy=0;entryX=0.175;entryY=0.75;entryDx=0;entryDy=0;entryPerimeter=0;dashed=1;endArrow=none;endFill=0;dashPattern=1 4;" edge="1" parent="1" source="29IkJBbhPeJfPXuXuNg9-3" target="29IkJBbhPeJfPXuXuNg9-11">
          <mxGeometry relative="1" as="geometry">
            <Array as="points">
              <mxPoint x="340" y="-855" />
              <mxPoint x="340" y="-1000" />
            </Array>
          </mxGeometry>
        </mxCell>
        <mxCell id="29IkJBbhPeJfPXuXuNg9-27" style="edgeStyle=orthogonalEdgeStyle;rounded=0;orthogonalLoop=1;jettySize=auto;html=1;exitX=1;exitY=0.5;exitDx=0;exitDy=0;endArrow=none;endFill=0;" edge="1" parent="1" source="29IkJBbhPeJfPXuXuNg9-25" target="29IkJBbhPeJfPXuXuNg9-26">
          <mxGeometry relative="1" as="geometry" />
        </mxCell>
        <mxCell id="29IkJBbhPeJfPXuXuNg9-25" value="" style="ellipse;whiteSpace=wrap;html=1;aspect=fixed;" vertex="1" parent="1">
          <mxGeometry x="590" y="-985" width="20" height="20" as="geometry" />
        </mxCell>
        <mxCell id="29IkJBbhPeJfPXuXuNg9-26" value="S" style="text;html=1;strokeColor=none;fillColor=none;align=center;verticalAlign=middle;whiteSpace=wrap;rounded=0;strokeWidth=2;fontSize=40;" vertex="1" parent="1">
          <mxGeometry x="640" y="-1000" width="60" height="50" as="geometry" />
        </mxCell>
        <mxCell id="29IkJBbhPeJfPXuXuNg9-50" style="edgeStyle=orthogonalEdgeStyle;rounded=0;orthogonalLoop=1;jettySize=auto;html=1;exitX=1;exitY=0.5;exitDx=0;exitDy=0;entryX=0;entryY=0.25;entryDx=0;entryDy=0;endArrow=none;endFill=0;" edge="1" parent="1" source="29IkJBbhPeJfPXuXuNg9-28" target="29IkJBbhPeJfPXuXuNg9-49">
          <mxGeometry relative="1" as="geometry" />
        </mxCell>
        <mxCell id="29IkJBbhPeJfPXuXuNg9-28" value="A" style="text;html=1;strokeColor=none;fillColor=none;align=center;verticalAlign=middle;whiteSpace=wrap;rounded=0;strokeWidth=2;fontSize=40;" vertex="1" parent="1">
          <mxGeometry x="60" y="-734" width="60" height="50" as="geometry" />
        </mxCell>
        <mxCell id="29IkJBbhPeJfPXuXuNg9-51" style="edgeStyle=orthogonalEdgeStyle;rounded=0;orthogonalLoop=1;jettySize=auto;html=1;exitX=1;exitY=0.5;exitDx=0;exitDy=0;entryX=0;entryY=0.75;entryDx=0;entryDy=0;endArrow=none;endFill=0;" edge="1" parent="1" source="29IkJBbhPeJfPXuXuNg9-29" target="29IkJBbhPeJfPXuXuNg9-49">
          <mxGeometry relative="1" as="geometry" />
        </mxCell>
        <mxCell id="29IkJBbhPeJfPXuXuNg9-29" value="B" style="text;html=1;strokeColor=none;fillColor=none;align=center;verticalAlign=middle;whiteSpace=wrap;rounded=0;strokeWidth=2;fontSize=40;" vertex="1" parent="1">
          <mxGeometry x="60" y="-604" width="60" height="50" as="geometry" />
        </mxCell>
        <mxCell id="29IkJBbhPeJfPXuXuNg9-30" value="C" style="text;html=1;strokeColor=none;fillColor=none;align=center;verticalAlign=middle;whiteSpace=wrap;rounded=0;strokeWidth=2;fontSize=40;" vertex="1" parent="1">
          <mxGeometry x="60" y="-484" width="60" height="50" as="geometry" />
        </mxCell>
        <mxCell id="29IkJBbhPeJfPXuXuNg9-58" style="edgeStyle=orthogonalEdgeStyle;rounded=0;orthogonalLoop=1;jettySize=auto;html=1;exitX=1;exitY=0.5;exitDx=0;exitDy=0;entryX=0;entryY=0.5;entryDx=0;entryDy=0;endArrow=none;endFill=0;" edge="1" parent="1" source="29IkJBbhPeJfPXuXuNg9-31" target="29IkJBbhPeJfPXuXuNg9-57">
          <mxGeometry relative="1" as="geometry" />
        </mxCell>
        <mxCell id="29IkJBbhPeJfPXuXuNg9-31" value="D" style="text;html=1;strokeColor=none;fillColor=none;align=center;verticalAlign=middle;whiteSpace=wrap;rounded=0;strokeWidth=2;fontSize=40;" vertex="1" parent="1">
          <mxGeometry x="60" y="-360" width="60" height="50" as="geometry" />
        </mxCell>
        <mxCell id="29IkJBbhPeJfPXuXuNg9-32" value="P1" style="text;html=1;strokeColor=none;fillColor=none;align=center;verticalAlign=middle;whiteSpace=wrap;rounded=0;fontSize=23;" vertex="1" parent="1">
          <mxGeometry x="240" y="-1055" width="60" height="30" as="geometry" />
        </mxCell>
        <mxCell id="29IkJBbhPeJfPXuXuNg9-33" value="P2" style="text;html=1;strokeColor=none;fillColor=none;align=center;verticalAlign=middle;whiteSpace=wrap;rounded=0;fontSize=23;" vertex="1" parent="1">
          <mxGeometry x="390" y="-1035" width="60" height="30" as="geometry" />
        </mxCell>
        <mxCell id="29IkJBbhPeJfPXuXuNg9-34" value="P3" style="text;html=1;strokeColor=none;fillColor=none;align=center;verticalAlign=middle;whiteSpace=wrap;rounded=0;fontSize=23;" vertex="1" parent="1">
          <mxGeometry x="230" y="-935" width="60" height="30" as="geometry" />
        </mxCell>
        <mxCell id="29IkJBbhPeJfPXuXuNg9-35" value="P4" style="text;html=1;strokeColor=none;fillColor=none;align=center;verticalAlign=middle;whiteSpace=wrap;rounded=0;fontSize=23;" vertex="1" parent="1">
          <mxGeometry x="520" y="-990" width="60" height="30" as="geometry" />
        </mxCell>
        <mxCell id="29IkJBbhPeJfPXuXuNg9-38" value="t" style="group" vertex="1" connectable="0" parent="1">
          <mxGeometry x="745" y="-1169" width="82" height="91" as="geometry" />
        </mxCell>
        <mxCell id="29IkJBbhPeJfPXuXuNg9-37" value="" style="curved=1;endArrow=none;html=1;rounded=0;endFill=0;" edge="1" parent="29IkJBbhPeJfPXuXuNg9-38">
          <mxGeometry width="50" height="50" relative="1" as="geometry">
            <mxPoint x="4" y="81" as="sourcePoint" />
            <mxPoint as="targetPoint" />
            <Array as="points">
              <mxPoint x="37" y="31" />
              <mxPoint />
            </Array>
          </mxGeometry>
        </mxCell>
        <mxCell id="29IkJBbhPeJfPXuXuNg9-41" value="" style="group" vertex="1" connectable="0" parent="29IkJBbhPeJfPXuXuNg9-38">
          <mxGeometry x="12" y="1" width="70" height="90" as="geometry" />
        </mxCell>
        <mxCell id="29IkJBbhPeJfPXuXuNg9-36" value="" style="shape=xor;whiteSpace=wrap;html=1;" vertex="1" parent="29IkJBbhPeJfPXuXuNg9-41">
          <mxGeometry width="60" height="80" as="geometry" />
        </mxCell>
        <mxCell id="29IkJBbhPeJfPXuXuNg9-39" value="exc." style="text;html=1;strokeColor=none;fillColor=none;align=center;verticalAlign=middle;whiteSpace=wrap;rounded=0;" vertex="1" parent="29IkJBbhPeJfPXuXuNg9-41">
          <mxGeometry x="24" y="71" width="46" height="19" as="geometry" />
        </mxCell>
        <mxCell id="29IkJBbhPeJfPXuXuNg9-40" value="P1" style="text;html=1;strokeColor=none;fillColor=none;align=center;verticalAlign=middle;whiteSpace=wrap;rounded=0;fontSize=23;" vertex="1" parent="29IkJBbhPeJfPXuXuNg9-41">
          <mxGeometry y="29.5" width="60" height="30" as="geometry" />
        </mxCell>
        <mxCell id="29IkJBbhPeJfPXuXuNg9-44" value="t" style="group" vertex="1" connectable="0" parent="1">
          <mxGeometry x="218" y="-695" width="82" height="91" as="geometry" />
        </mxCell>
        <mxCell id="29IkJBbhPeJfPXuXuNg9-45" value="" style="curved=1;endArrow=none;html=1;rounded=0;endFill=0;" edge="1" parent="29IkJBbhPeJfPXuXuNg9-44">
          <mxGeometry width="50" height="50" relative="1" as="geometry">
            <mxPoint x="4" y="81" as="sourcePoint" />
            <mxPoint as="targetPoint" />
            <Array as="points">
              <mxPoint x="37" y="31" />
              <mxPoint />
            </Array>
          </mxGeometry>
        </mxCell>
        <mxCell id="29IkJBbhPeJfPXuXuNg9-46" value="" style="group" vertex="1" connectable="0" parent="29IkJBbhPeJfPXuXuNg9-44">
          <mxGeometry x="12" y="1" width="70" height="90" as="geometry" />
        </mxCell>
        <mxCell id="29IkJBbhPeJfPXuXuNg9-47" value="" style="shape=xor;whiteSpace=wrap;html=1;" vertex="1" parent="29IkJBbhPeJfPXuXuNg9-46">
          <mxGeometry width="60" height="80" as="geometry" />
        </mxCell>
        <mxCell id="29IkJBbhPeJfPXuXuNg9-48" value="exc." style="text;html=1;strokeColor=none;fillColor=none;align=center;verticalAlign=middle;whiteSpace=wrap;rounded=0;" vertex="1" parent="29IkJBbhPeJfPXuXuNg9-46">
          <mxGeometry x="24" y="71" width="46" height="19" as="geometry" />
        </mxCell>
        <mxCell id="29IkJBbhPeJfPXuXuNg9-49" value="P1" style="text;html=1;strokeColor=none;fillColor=none;align=center;verticalAlign=middle;whiteSpace=wrap;rounded=0;fontSize=23;" vertex="1" parent="29IkJBbhPeJfPXuXuNg9-46">
          <mxGeometry y="29.5" width="60" height="30" as="geometry" />
        </mxCell>
        <mxCell id="29IkJBbhPeJfPXuXuNg9-52" value="" style="shape=xor;whiteSpace=wrap;html=1;" vertex="1" parent="1">
          <mxGeometry x="498" y="-561" width="60" height="80" as="geometry" />
        </mxCell>
        <mxCell id="29IkJBbhPeJfPXuXuNg9-55" style="edgeStyle=orthogonalEdgeStyle;rounded=0;orthogonalLoop=1;jettySize=auto;html=1;exitX=0;exitY=0.25;exitDx=0;exitDy=0;exitPerimeter=0;endArrow=none;endFill=0;" edge="1" parent="1" source="29IkJBbhPeJfPXuXuNg9-53" target="29IkJBbhPeJfPXuXuNg9-29">
          <mxGeometry relative="1" as="geometry" />
        </mxCell>
        <mxCell id="29IkJBbhPeJfPXuXuNg9-53" value="" style="shape=or;whiteSpace=wrap;html=1;" vertex="1" parent="1">
          <mxGeometry x="230" y="-561" width="60" height="80" as="geometry" />
        </mxCell>
        <mxCell id="29IkJBbhPeJfPXuXuNg9-54" style="edgeStyle=orthogonalEdgeStyle;rounded=0;orthogonalLoop=1;jettySize=auto;html=1;exitX=1;exitY=0.5;exitDx=0;exitDy=0;entryX=0;entryY=0.75;entryDx=0;entryDy=0;entryPerimeter=0;endArrow=none;endFill=0;" edge="1" parent="1" source="29IkJBbhPeJfPXuXuNg9-30" target="29IkJBbhPeJfPXuXuNg9-53">
          <mxGeometry relative="1" as="geometry" />
        </mxCell>
        <mxCell id="29IkJBbhPeJfPXuXuNg9-59" value="" style="group" vertex="1" connectable="0" parent="1">
          <mxGeometry x="230" y="-346" width="35" height="22" as="geometry" />
        </mxCell>
        <mxCell id="29IkJBbhPeJfPXuXuNg9-56" value="" style="ellipse;whiteSpace=wrap;html=1;aspect=fixed;" vertex="1" parent="29IkJBbhPeJfPXuXuNg9-59">
          <mxGeometry x="15" y="1" width="20" height="20" as="geometry" />
        </mxCell>
        <mxCell id="29IkJBbhPeJfPXuXuNg9-57" value="" style="triangle;whiteSpace=wrap;html=1;" vertex="1" parent="29IkJBbhPeJfPXuXuNg9-59">
          <mxGeometry width="15" height="22" as="geometry" />
        </mxCell>
        <mxCell id="29IkJBbhPeJfPXuXuNg9-60" style="edgeStyle=orthogonalEdgeStyle;rounded=0;orthogonalLoop=1;jettySize=auto;html=1;exitX=1;exitY=0.5;exitDx=0;exitDy=0;entryX=0.175;entryY=0.25;entryDx=0;entryDy=0;entryPerimeter=0;endArrow=none;endFill=0;" edge="1" parent="1" source="29IkJBbhPeJfPXuXuNg9-49" target="29IkJBbhPeJfPXuXuNg9-52">
          <mxGeometry relative="1" as="geometry">
            <Array as="points">
              <mxPoint x="417" y="-650" />
              <mxPoint x="417" y="-541" />
            </Array>
          </mxGeometry>
        </mxCell>
        <mxCell id="29IkJBbhPeJfPXuXuNg9-61" style="edgeStyle=orthogonalEdgeStyle;rounded=0;orthogonalLoop=1;jettySize=auto;html=1;exitX=1;exitY=0.5;exitDx=0;exitDy=0;exitPerimeter=0;entryX=0.25;entryY=0.5;entryDx=0;entryDy=0;entryPerimeter=0;endArrow=none;endFill=0;" edge="1" parent="1" source="29IkJBbhPeJfPXuXuNg9-53" target="29IkJBbhPeJfPXuXuNg9-52">
          <mxGeometry relative="1" as="geometry" />
        </mxCell>
        <mxCell id="29IkJBbhPeJfPXuXuNg9-62" style="edgeStyle=orthogonalEdgeStyle;rounded=0;orthogonalLoop=1;jettySize=auto;html=1;exitX=1;exitY=0.5;exitDx=0;exitDy=0;entryX=0.175;entryY=0.75;entryDx=0;entryDy=0;entryPerimeter=0;endArrow=none;endFill=0;" edge="1" parent="1" source="29IkJBbhPeJfPXuXuNg9-56" target="29IkJBbhPeJfPXuXuNg9-52">
          <mxGeometry relative="1" as="geometry">
            <Array as="points">
              <mxPoint x="418" y="-335" />
              <mxPoint x="418" y="-501" />
            </Array>
          </mxGeometry>
        </mxCell>
        <mxCell id="29IkJBbhPeJfPXuXuNg9-63" value="P2" style="text;html=1;strokeColor=none;fillColor=none;align=center;verticalAlign=middle;whiteSpace=wrap;rounded=0;fontSize=23;" vertex="1" parent="1">
          <mxGeometry x="230" y="-536" width="60" height="30" as="geometry" />
        </mxCell>
        <mxCell id="29IkJBbhPeJfPXuXuNg9-64" value="P3" style="text;html=1;strokeColor=none;fillColor=none;align=center;verticalAlign=middle;whiteSpace=wrap;rounded=0;fontSize=23;" vertex="1" parent="1">
          <mxGeometry x="500" y="-536" width="60" height="30" as="geometry" />
        </mxCell>
        <mxCell id="29IkJBbhPeJfPXuXuNg9-66" value="" style="edgeStyle=orthogonalEdgeStyle;rounded=0;orthogonalLoop=1;jettySize=auto;html=1;endArrow=none;endFill=0;" edge="1" parent="1" source="29IkJBbhPeJfPXuXuNg9-65" target="29IkJBbhPeJfPXuXuNg9-64">
          <mxGeometry relative="1" as="geometry" />
        </mxCell>
        <mxCell id="29IkJBbhPeJfPXuXuNg9-65" value="S" style="text;html=1;strokeColor=none;fillColor=none;align=center;verticalAlign=middle;whiteSpace=wrap;rounded=0;strokeWidth=2;fontSize=40;" vertex="1" parent="1">
          <mxGeometry x="640" y="-546" width="60" height="50" as="geometry" />
        </mxCell>
        <mxCell id="29IkJBbhPeJfPXuXuNg9-67" value="N" style="text;html=1;strokeColor=none;fillColor=none;align=center;verticalAlign=middle;whiteSpace=wrap;rounded=0;strokeWidth=2;fontSize=40;" vertex="1" parent="1">
          <mxGeometry x="60" y="-220" width="60" height="50" as="geometry" />
        </mxCell>
        <mxCell id="29IkJBbhPeJfPXuXuNg9-68" value="G" style="text;html=1;strokeColor=none;fillColor=none;align=center;verticalAlign=middle;whiteSpace=wrap;rounded=0;strokeWidth=2;fontSize=40;" vertex="1" parent="1">
          <mxGeometry x="60" y="-90" width="60" height="50" as="geometry" />
        </mxCell>
        <mxCell id="29IkJBbhPeJfPXuXuNg9-69" value="H" style="text;html=1;strokeColor=none;fillColor=none;align=center;verticalAlign=middle;whiteSpace=wrap;rounded=0;strokeWidth=2;fontSize=40;" vertex="1" parent="1">
          <mxGeometry x="60" y="30" width="60" height="50" as="geometry" />
        </mxCell>
        <mxCell id="29IkJBbhPeJfPXuXuNg9-70" value="I" style="text;html=1;strokeColor=none;fillColor=none;align=center;verticalAlign=middle;whiteSpace=wrap;rounded=0;strokeWidth=2;fontSize=40;" vertex="1" parent="1">
          <mxGeometry x="60" y="154" width="60" height="50" as="geometry" />
        </mxCell>
        <mxCell id="29IkJBbhPeJfPXuXuNg9-72" value="" style="shape=xor;whiteSpace=wrap;html=1;" vertex="1" parent="1">
          <mxGeometry x="220" y="-170" width="60" height="80" as="geometry" />
        </mxCell>
        <mxCell id="29IkJBbhPeJfPXuXuNg9-81" style="edgeStyle=orthogonalEdgeStyle;rounded=0;orthogonalLoop=1;jettySize=auto;html=1;exitX=1;exitY=0.5;exitDx=0;exitDy=0;entryX=0.175;entryY=0.75;entryDx=0;entryDy=0;entryPerimeter=0;endArrow=none;endFill=0;" edge="1" parent="1" source="29IkJBbhPeJfPXuXuNg9-68" target="29IkJBbhPeJfPXuXuNg9-72">
          <mxGeometry relative="1" as="geometry" />
        </mxCell>
        <mxCell id="29IkJBbhPeJfPXuXuNg9-83" value="" style="edgeStyle=orthogonalEdgeStyle;rounded=0;orthogonalLoop=1;jettySize=auto;html=1;exitX=1;exitY=0.5;exitDx=0;exitDy=0;entryX=0.175;entryY=0.25;entryDx=0;entryDy=0;entryPerimeter=0;endArrow=none;endFill=0;" edge="1" parent="1" source="29IkJBbhPeJfPXuXuNg9-82" target="29IkJBbhPeJfPXuXuNg9-72">
          <mxGeometry relative="1" as="geometry">
            <mxPoint x="120" y="-195" as="sourcePoint" />
            <mxPoint x="231" y="-150" as="targetPoint" />
            <Array as="points">
              <mxPoint x="170" y="-150" />
            </Array>
          </mxGeometry>
        </mxCell>
        <mxCell id="29IkJBbhPeJfPXuXuNg9-84" value="" style="edgeStyle=orthogonalEdgeStyle;rounded=0;orthogonalLoop=1;jettySize=auto;html=1;exitX=1;exitY=0.5;exitDx=0;exitDy=0;entryX=0;entryY=0.5;entryDx=0;entryDy=0;endArrow=none;endFill=0;" edge="1" parent="1" source="29IkJBbhPeJfPXuXuNg9-67" target="29IkJBbhPeJfPXuXuNg9-82">
          <mxGeometry relative="1" as="geometry">
            <mxPoint x="120" y="-195" as="sourcePoint" />
            <mxPoint x="231" y="-150" as="targetPoint" />
            <Array as="points">
              <mxPoint x="170" y="-195" />
              <mxPoint x="170" y="-150" />
            </Array>
          </mxGeometry>
        </mxCell>
        <mxCell id="29IkJBbhPeJfPXuXuNg9-82" value="" style="ellipse;whiteSpace=wrap;html=1;aspect=fixed;" vertex="1" parent="1">
          <mxGeometry x="210" y="-160" width="20" height="20" as="geometry" />
        </mxCell>
        <mxCell id="29IkJBbhPeJfPXuXuNg9-96" style="edgeStyle=orthogonalEdgeStyle;rounded=0;orthogonalLoop=1;jettySize=auto;html=1;exitX=1;exitY=0.5;exitDx=0;exitDy=0;exitPerimeter=0;entryX=0;entryY=0.5;entryDx=0;entryDy=0;endArrow=none;endFill=0;" edge="1" parent="1" source="29IkJBbhPeJfPXuXuNg9-85" target="29IkJBbhPeJfPXuXuNg9-94">
          <mxGeometry relative="1" as="geometry" />
        </mxCell>
        <mxCell id="29IkJBbhPeJfPXuXuNg9-85" value="" style="shape=or;whiteSpace=wrap;html=1;" vertex="1" parent="1">
          <mxGeometry x="370" y="-40" width="60" height="80" as="geometry" />
        </mxCell>
        <mxCell id="29IkJBbhPeJfPXuXuNg9-86" value="" style="shape=or;whiteSpace=wrap;html=1;" vertex="1" parent="1">
          <mxGeometry x="210" y="74" width="60" height="80" as="geometry" />
        </mxCell>
        <mxCell id="29IkJBbhPeJfPXuXuNg9-87" style="edgeStyle=orthogonalEdgeStyle;rounded=0;orthogonalLoop=1;jettySize=auto;html=1;exitX=1;exitY=0.5;exitDx=0;exitDy=0;entryX=0;entryY=0.75;entryDx=0;entryDy=0;entryPerimeter=0;endArrow=none;endFill=0;" edge="1" parent="1" source="29IkJBbhPeJfPXuXuNg9-70" target="29IkJBbhPeJfPXuXuNg9-86">
          <mxGeometry relative="1" as="geometry" />
        </mxCell>
        <mxCell id="29IkJBbhPeJfPXuXuNg9-88" style="edgeStyle=orthogonalEdgeStyle;rounded=0;orthogonalLoop=1;jettySize=auto;html=1;exitX=1;exitY=0.5;exitDx=0;exitDy=0;entryX=0;entryY=0.25;entryDx=0;entryDy=0;entryPerimeter=0;endArrow=none;endFill=0;" edge="1" parent="1" source="29IkJBbhPeJfPXuXuNg9-69" target="29IkJBbhPeJfPXuXuNg9-86">
          <mxGeometry relative="1" as="geometry" />
        </mxCell>
        <mxCell id="29IkJBbhPeJfPXuXuNg9-89" style="edgeStyle=orthogonalEdgeStyle;rounded=0;orthogonalLoop=1;jettySize=auto;html=1;exitX=1;exitY=0.5;exitDx=0;exitDy=0;exitPerimeter=0;entryX=0;entryY=0.75;entryDx=0;entryDy=0;entryPerimeter=0;endArrow=none;endFill=0;" edge="1" parent="1" source="29IkJBbhPeJfPXuXuNg9-86" target="29IkJBbhPeJfPXuXuNg9-85">
          <mxGeometry relative="1" as="geometry" />
        </mxCell>
        <mxCell id="29IkJBbhPeJfPXuXuNg9-90" style="edgeStyle=orthogonalEdgeStyle;rounded=0;orthogonalLoop=1;jettySize=auto;html=1;exitX=1;exitY=0.5;exitDx=0;exitDy=0;exitPerimeter=0;entryX=0;entryY=0.25;entryDx=0;entryDy=0;entryPerimeter=0;endArrow=none;endFill=0;" edge="1" parent="1" source="29IkJBbhPeJfPXuXuNg9-72" target="29IkJBbhPeJfPXuXuNg9-85">
          <mxGeometry relative="1" as="geometry" />
        </mxCell>
        <mxCell id="29IkJBbhPeJfPXuXuNg9-91" value="S" style="text;html=1;strokeColor=none;fillColor=none;align=center;verticalAlign=middle;whiteSpace=wrap;rounded=0;strokeWidth=2;fontSize=40;" vertex="1" parent="1">
          <mxGeometry x="558" y="-25" width="60" height="50" as="geometry" />
        </mxCell>
        <mxCell id="29IkJBbhPeJfPXuXuNg9-92" value="" style="group" vertex="1" connectable="0" parent="1">
          <mxGeometry x="480" y="-11" width="35" height="22" as="geometry" />
        </mxCell>
        <mxCell id="29IkJBbhPeJfPXuXuNg9-93" value="" style="ellipse;whiteSpace=wrap;html=1;aspect=fixed;" vertex="1" parent="29IkJBbhPeJfPXuXuNg9-92">
          <mxGeometry x="15" y="1" width="20" height="20" as="geometry" />
        </mxCell>
        <mxCell id="29IkJBbhPeJfPXuXuNg9-94" value="" style="triangle;whiteSpace=wrap;html=1;" vertex="1" parent="29IkJBbhPeJfPXuXuNg9-92">
          <mxGeometry width="15" height="22" as="geometry" />
        </mxCell>
        <mxCell id="29IkJBbhPeJfPXuXuNg9-97" style="edgeStyle=orthogonalEdgeStyle;rounded=0;orthogonalLoop=1;jettySize=auto;html=1;exitX=1;exitY=0.5;exitDx=0;exitDy=0;endArrow=none;endFill=0;" edge="1" parent="1" source="29IkJBbhPeJfPXuXuNg9-93" target="29IkJBbhPeJfPXuXuNg9-91">
          <mxGeometry relative="1" as="geometry" />
        </mxCell>
        <mxCell id="29IkJBbhPeJfPXuXuNg9-98" value="P1" style="text;html=1;strokeColor=none;fillColor=none;align=center;verticalAlign=middle;whiteSpace=wrap;rounded=0;fontSize=23;" vertex="1" parent="1">
          <mxGeometry x="229" y="-145" width="60" height="30" as="geometry" />
        </mxCell>
        <mxCell id="29IkJBbhPeJfPXuXuNg9-99" value="P2" style="text;html=1;strokeColor=none;fillColor=none;align=center;verticalAlign=middle;whiteSpace=wrap;rounded=0;fontSize=23;" vertex="1" parent="1">
          <mxGeometry x="210" y="99" width="60" height="30" as="geometry" />
        </mxCell>
        <mxCell id="29IkJBbhPeJfPXuXuNg9-100" value="P3" style="text;html=1;strokeColor=none;fillColor=none;align=center;verticalAlign=middle;whiteSpace=wrap;rounded=0;fontSize=23;" vertex="1" parent="1">
          <mxGeometry x="370" y="-15" width="60" height="30" as="geometry" />
        </mxCell>
      </root>
    </mxGraphModel>
  </diagram>
</mxfile>
